<?xml version="1.0" encoding="utf-8"?>
<!-- Generator: Adobe Illustrator 24.1.1, SVG Export Plug-In . SVG Version: 6.00 Build 0)  -->
<svg version="1.1" id="Capa_1" xmlns="http://www.w3.org/2000/svg" xmlns:xlink="http://www.w3.org/1999/xlink" x="0px" y="0px"
	 viewBox="0 0 453.6 139.9" style="enable-background:new 0 0 453.6 139.9;" xml:space="preserve">
<style type="text/css">
	.st0{fill:#9E1460;}
	.st1{font-family:'Verdana';}
	.st2{font-size:58px;}
	.st3{letter-spacing:-3;}
</style>
<path class="st0" d="M86.4,60.6v8.2c0,0.4-0.1,0.8-0.4,1.2l0,0l-37.4,51.2c-0.9,1.2-2.6,1.5-3.9,0.6c-0.3-0.2-0.5-0.4-0.7-0.7
	L9.9,70V70c-0.2-0.3-0.3-0.7-0.3-1.1v-8.3c4.9,3.6,13.2,6.4,23.2,7.8c0,0.3,0,0.7,0,1c-0.2,7.4,5.6,13.6,13,13.8
	c7.4,0.2,13.6-5.6,13.8-13c0-0.2,0-0.5,0-0.7c0-0.2,0-0.4,0-0.6C71.2,67.6,80.8,64.6,86.4,60.6z"/>
<ellipse class="st0" cx="46.3" cy="128.1" rx="10.9" ry="2.3"/>
<path class="st0" d="M27.8,33v31.4c-4-0.7-8-1.8-11.8-3.2V33H27.8z"/>
<path class="st0" d="M40.8,22.3v44c-3.9-0.2-7.9-0.7-11.8-1.4V22.3H40.8z"/>
<path class="st0" d="M54,10.7l-0.2,55.6c-1.9,0.1-3.8,0.1-5.8,0.1s-4-0.1-6-0.2l0.2-55.6l5.7-3L54,10.7z"/>
<rect x="62.6" y="33.8" class="st0" width="6" height="5.9"/>
<rect x="62.7" y="41.6" class="st0" width="6" height="5.9"/>
<rect x="70.2" y="33.7" class="st0" width="6" height="5.9"/>
<rect x="70.3" y="41.5" class="st0" width="6" height="5.9"/>
<path class="st0" d="M92.7,123.3c0,9.1-20.8,16.5-46.4,16.5S0,132.4,0,123.3c0-0.5,0.1-1.1,0.2-1.6C2,130.3,22,137,46.4,137
	c24.1,0,43.9-6.6,46.2-14.9C92.7,122.5,92.7,122.9,92.7,123.3z"/>
<path class="st0" d="M15.1,60.6l-0.2-36.4L47.8,6l33,17.8L81,60.6c2.1-1,3.9-2.5,5.4-4.2l-0.2-35.6L47.8,0L9.5,21.3l0.2,35.3
	C11.3,58.2,13.1,59.6,15.1,60.6z"/>
<text transform="matrix(1 0 0 1 92.73 91.5)" class="st0 st1 st2 st3">CATOVATECH</text>
</svg>
