<?xml version="1.0" encoding="utf-8"?>
<!-- Generator: Adobe Illustrator 24.1.1, SVG Export Plug-In . SVG Version: 6.00 Build 0)  -->
<svg version="1.1" xmlns="http://www.w3.org/2000/svg" xmlns:xlink="http://www.w3.org/1999/xlink" x="0px" y="0px"
	 viewBox="0 0 1024 768" style="enable-background:new 0 0 1024 768;" xml:space="preserve">
<style type="text/css">
	.st0{fill:none;}
	.st1{fill:none;stroke:#303030;stroke-width:0.5;stroke-miterlimit:10;}
	.st2{fill:url(#SVGID_1_);stroke:#303030;stroke-width:0.5;stroke-miterlimit:10;}
	.st3{display:none;}
	.st4{display:inline;fill:none;stroke:#303030;stroke-width:0.5;stroke-miterlimit:10;}
</style>
<pattern  width="321.6" height="344.3" patternUnits="userSpaceOnUse" id="Motivo_nuevo" viewBox="70.9 -384.2 321.6 344.3" style="overflow:visible;">
	<g>
		<rect x="70.9" y="-384.2" class="st0" width="321.6" height="344.3"/>
		<g>
			<path class="st1" d="M50.4-410.9c0,0.2,0,0.4,0,0.6c0,0.2,0,0.5,0,0.7c-0.2,7.4-6.4,13.2-13.8,13c-7.4-0.2-13.2-6.4-13-13.8
				c0-0.3,0-0.7,0-1c-10-1.4-18.3-4.2-23.2-7.8v8.3c0,0.4,0.1,0.8,0.3,1.1l0,0l34.1,51.1c0.2,0.3,0.4,0.5,0.7,0.7
				c1.3,0.9,3,0.6,3.9-0.6l37.4-51.2l0,0c0.3-0.4,0.4-0.8,0.4-1.2v-8.2C71.6-415.2,62-412.2,50.4-410.9z"/>
		</g>
		<g>
			<path class="st1" d="M130.8-410.9c0,0.2,0,0.4,0,0.6c0,0.2,0,0.5,0,0.7c-0.2,7.4-6.4,13.2-13.8,13c-7.4-0.2-13.2-6.4-13-13.8
				c0-0.3,0-0.7,0-1c-10-1.4-18.3-4.2-23.2-7.8v8.3c0,0.4,0.1,0.8,0.3,1.1l0,0l34.1,51.1c0.2,0.3,0.4,0.5,0.7,0.7
				c1.3,0.9,3,0.6,3.9-0.6l37.4-51.2l0,0c0.3-0.4,0.4-0.8,0.4-1.2v-8.2C152-415.2,142.4-412.2,130.8-410.9z"/>
		</g>
		<g>
			<path class="st1" d="M211.2-410.9c0,0.2,0,0.4,0,0.6c0,0.2,0,0.5,0,0.7c-0.2,7.4-6.4,13.2-13.8,13c-7.4-0.2-13.2-6.4-13-13.8
				c0-0.3,0-0.7,0-1c-10-1.4-18.3-4.2-23.2-7.8v8.3c0,0.4,0.1,0.8,0.3,1.1l0,0l34.1,51.1c0.2,0.3,0.4,0.5,0.7,0.7
				c1.3,0.9,3,0.6,3.9-0.6l37.4-51.2l0,0c0.3-0.4,0.4-0.8,0.4-1.2v-8.2C232.4-415.2,222.8-412.2,211.2-410.9z"/>
		</g>
		<g>
			<path class="st1" d="M291.6-410.9c0,0.2,0,0.4,0,0.6c0,0.2,0,0.5,0,0.7c-0.2,7.4-6.4,13.2-13.8,13c-7.4-0.2-13.2-6.4-13-13.8
				c0-0.3,0-0.7,0-1c-10-1.4-18.3-4.2-23.2-7.8v8.3c0,0.4,0.1,0.8,0.3,1.1l0,0l34.1,51.1c0.2,0.3,0.4,0.5,0.7,0.7
				c1.3,0.9,3,0.6,3.9-0.6l37.4-51.2l0,0c0.3-0.4,0.4-0.8,0.4-1.2v-8.2C312.8-415.2,303.2-412.2,291.6-410.9z"/>
		</g>
		<g>
			<path class="st1" d="M372-410.9c0,0.2,0,0.4,0,0.6c0,0.2,0,0.5,0,0.7c-0.2,7.4-6.4,13.2-13.8,13c-7.4-0.2-13.2-6.4-13-13.8
				c0-0.3,0-0.7,0-1c-10-1.4-18.3-4.2-23.2-7.8v8.3c0,0.4,0.1,0.8,0.3,1.1l0,0l34.1,51.1c0.2,0.3,0.4,0.5,0.7,0.7
				c1.3,0.9,3,0.6,3.9-0.6l37.4-51.2l0,0c0.3-0.4,0.4-0.8,0.4-1.2v-8.2C393.2-415.2,383.6-412.2,372-410.9z"/>
		</g>
		<g>
			<path class="st1" d="M114.7-342c0,0.2,0,0.4,0,0.6c0,0.2,0,0.5,0,0.7c-0.2,7.4-6.4,13.2-13.8,13s-13.2-6.4-13-13.8
				c0-0.3,0-0.7,0-1c-10-1.4-18.3-4.2-23.2-7.8v8.3c0,0.4,0.1,0.8,0.3,1.1l0,0l34.1,51.1c0.2,0.3,0.4,0.5,0.7,0.7
				c1.3,0.9,3,0.6,3.9-0.6l37.4-51.2l0,0c0.3-0.4,0.4-0.8,0.4-1.2v-8.2C135.9-346.3,126.3-343.3,114.7-342z"/>
			<path class="st1" d="M71.1-377.9v28.2c3.8,1.4,7.8,2.5,11.8,3.2v-31.4H71.1z"/>
			<path class="st1" d="M84.1-388.6v42.6c3.9,0.7,7.9,1.2,11.8,1.4v-44H84.1z"/>
			<path class="st1" d="M103-403.3l-5.7,3l-0.2,55.6c2,0.1,4,0.2,6,0.2s3.9,0,5.8-0.1l0.2-55.6L103-403.3z"/>
			<rect x="117.7" y="-377.1" class="st1" width="6" height="5.9"/>
			<rect x="117.8" y="-369.3" class="st1" width="6" height="5.9"/>
			<rect x="125.3" y="-377.2" class="st1" width="6" height="5.9"/>
			<rect x="125.4" y="-369.4" class="st1" width="6" height="5.9"/>
			<path class="st1" d="M64.8-354.3l-0.2-35.3l38.3-21.3l38.4,20.8l0.2,35.6c-1.5,1.7-3.3,3.2-5.4,4.2l-0.2-36.8l-33-17.8L70-386.7
				l0.2,36.4C68.2-351.3,66.4-352.7,64.8-354.3z"/>
		</g>
		<g>
			<path class="st1" d="M195.1-342c0,0.2,0,0.4,0,0.6c0,0.2,0,0.5,0,0.7c-0.2,7.4-6.4,13.2-13.8,13c-7.4-0.2-13.2-6.4-13-13.8
				c0-0.3,0-0.7,0-1c-10-1.4-18.3-4.2-23.2-7.8v8.3c0,0.4,0.1,0.8,0.3,1.1l0,0l34.1,51.1c0.2,0.3,0.4,0.5,0.7,0.7
				c1.3,0.9,3,0.6,3.9-0.6l37.4-51.2l0,0c0.3-0.4,0.4-0.8,0.4-1.2v-8.2C216.3-346.3,206.7-343.3,195.1-342z"/>
			<path class="st1" d="M151.5-377.9v28.2c3.8,1.4,7.8,2.5,11.8,3.2v-31.4H151.5z"/>
			<path class="st1" d="M164.5-388.6v42.6c3.9,0.7,7.9,1.2,11.8,1.4v-44H164.5z"/>
			<path class="st1" d="M183.4-403.3l-5.7,3l-0.2,55.6c2,0.1,4,0.2,6,0.2s3.9,0,5.8-0.1l0.2-55.6L183.4-403.3z"/>
			<rect x="198.1" y="-377.1" class="st1" width="6" height="5.9"/>
			<rect x="198.2" y="-369.3" class="st1" width="6" height="5.9"/>
			<rect x="205.7" y="-377.2" class="st1" width="6" height="5.9"/>
			<rect x="205.8" y="-369.4" class="st1" width="6" height="5.9"/>
			<path class="st1" d="M145.2-354.3l-0.2-35.3l38.3-21.3l38.4,20.8l0.2,35.6c-1.5,1.7-3.3,3.2-5.4,4.2l-0.2-36.8l-33-17.8
				l-32.9,18.2l0.2,36.4C148.6-351.3,146.8-352.7,145.2-354.3z"/>
		</g>
		<g>
			<path class="st1" d="M275.5-342c0,0.2,0,0.4,0,0.6c0,0.2,0,0.5,0,0.7c-0.2,7.4-6.4,13.2-13.8,13c-7.4-0.2-13.2-6.4-13-13.8
				c0-0.3,0-0.7,0-1c-10-1.4-18.3-4.2-23.2-7.8v8.3c0,0.4,0.1,0.8,0.3,1.1l0,0l34.1,51.1c0.2,0.3,0.4,0.5,0.7,0.7
				c1.3,0.9,3,0.6,3.9-0.6l37.4-51.2l0,0c0.3-0.4,0.4-0.8,0.4-1.2v-8.2C296.7-346.3,287.1-343.3,275.5-342z"/>
			<path class="st1" d="M231.9-377.9v28.2c3.8,1.4,7.8,2.5,11.8,3.2v-31.4H231.9z"/>
			<path class="st1" d="M244.9-388.6v42.6c3.9,0.7,7.9,1.2,11.8,1.4v-44H244.9z"/>
			<path class="st1" d="M263.8-403.3l-5.7,3l-0.2,55.6c2,0.1,4,0.2,6,0.2s3.9,0,5.8-0.1l0.2-55.6L263.8-403.3z"/>
			<rect x="278.5" y="-377.1" class="st1" width="6" height="5.9"/>
			<rect x="278.6" y="-369.3" class="st1" width="6" height="5.9"/>
			<rect x="286.1" y="-377.2" class="st1" width="6" height="5.9"/>
			<rect x="286.2" y="-369.4" class="st1" width="6" height="5.9"/>
			<path class="st1" d="M225.6-354.3l-0.2-35.3l38.3-21.3l38.4,20.8l0.2,35.6c-1.5,1.7-3.3,3.2-5.4,4.2l-0.2-36.8l-33-17.8
				l-32.9,18.2l0.2,36.4C229-351.3,227.2-352.7,225.6-354.3z"/>
		</g>
		<g>
			<path class="st1" d="M355.9-342c0,0.2,0,0.4,0,0.6c0,0.2,0,0.5,0,0.7c-0.2,7.4-6.4,13.2-13.8,13c-7.4-0.2-13.2-6.4-13-13.8
				c0-0.3,0-0.7,0-1c-10-1.4-18.3-4.2-23.2-7.8v8.3c0,0.4,0.1,0.8,0.3,1.1l0,0l34.1,51.1c0.2,0.3,0.4,0.5,0.7,0.7
				c1.3,0.9,3,0.6,3.9-0.6l37.4-51.2l0,0c0.3-0.4,0.4-0.8,0.4-1.2v-8.2C377.1-346.3,367.5-343.3,355.9-342z"/>
			<path class="st1" d="M312.3-377.9v28.2c3.8,1.4,7.8,2.5,11.8,3.2v-31.4H312.3z"/>
			<path class="st1" d="M325.3-388.6v42.6c3.9,0.7,7.9,1.2,11.8,1.4v-44H325.3z"/>
			<path class="st1" d="M344.2-403.3l-5.7,3l-0.2,55.6c2,0.1,4,0.2,6,0.2s3.9,0,5.8-0.1l0.2-55.6L344.2-403.3z"/>
			<rect x="358.9" y="-377.1" class="st1" width="6" height="5.9"/>
			<rect x="359" y="-369.3" class="st1" width="6" height="5.9"/>
			<rect x="366.5" y="-377.2" class="st1" width="6" height="5.9"/>
			<rect x="366.6" y="-369.4" class="st1" width="6" height="5.9"/>
			<path class="st1" d="M306-354.3l-0.2-35.3l38.3-21.3l38.4,20.8l0.2,35.6c-1.5,1.7-3.3,3.2-5.4,4.2l-0.2-36.8l-33-17.8l-32.9,18.2
				l0.2,36.4C309.4-351.3,307.6-352.7,306-354.3z"/>
		</g>
		<g>
			<path class="st1" d="M436.3-342c0,0.2,0,0.4,0,0.6c0,0.2,0,0.5,0,0.7c-0.2,7.4-6.4,13.2-13.8,13c-7.4-0.2-13.2-6.4-13-13.8
				c0-0.3,0-0.7,0-1c-10-1.4-18.3-4.2-23.2-7.8v8.3c0,0.4,0.1,0.8,0.3,1.1l0,0l34.1,51.1c0.2,0.3,0.4,0.5,0.7,0.7
				c1.3,0.9,3,0.6,3.9-0.6l37.4-51.2l0,0c0.3-0.4,0.4-0.8,0.4-1.2v-8.2C457.5-346.3,447.9-343.3,436.3-342z"/>
			<path class="st1" d="M392.7-377.9v28.2c3.8,1.4,7.8,2.5,11.8,3.2v-31.4H392.7z"/>
			<path class="st1" d="M386.4-354.3l-0.2-35.3l38.3-21.3l38.4,20.8l0.2,35.6c-1.5,1.7-3.3,3.2-5.4,4.2l-0.2-36.8l-33-17.8
				l-32.9,18.2l0.2,36.4C389.8-351.3,388-352.7,386.4-354.3z"/>
		</g>
		<g>
			<path class="st1" d="M98.6-273.2c0,0.2,0,0.4,0,0.6c0,0.2,0,0.5,0,0.7c-0.2,7.4-6.4,13.2-13.8,13c-7.4-0.2-13.2-6.4-13-13.8
				c0-0.3,0-0.7,0-1c-10-1.4-18.3-4.2-23.2-7.8v8.3c0,0.4,0.1,0.8,0.3,1.1l0,0L83-221c0.2,0.3,0.4,0.5,0.7,0.7
				c1.3,0.9,3,0.6,3.9-0.6l37.4-51.2l0,0c0.3-0.4,0.4-0.8,0.4-1.2v-8.2C119.8-277.5,110.2-274.5,98.6-273.2z"/>
			<path class="st1" d="M68-319.8v42.6c3.9,0.7,7.9,1.2,11.8,1.4v-44H68z"/>
			<path class="st1" d="M86.9-334.5l-5.7,3L81-275.9c2,0.1,4,0.2,6,0.2s3.9,0,5.8-0.1l0.2-55.6L86.9-334.5z"/>
			<rect x="101.6" y="-308.3" class="st1" width="6" height="5.9"/>
			<rect x="101.7" y="-300.5" class="st1" width="6" height="5.9"/>
			<rect x="109.2" y="-308.4" class="st1" width="6" height="5.9"/>
			<rect x="109.3" y="-300.6" class="st1" width="6" height="5.9"/>
			<path class="st1" d="M48.7-285.5l-0.2-35.3l38.3-21.3l38.4,20.8l0.2,35.6c-1.5,1.7-3.3,3.2-5.4,4.2l-0.2-36.8l-33-17.8
				l-32.9,18.2l0.2,36.4C52.1-282.5,50.3-283.9,48.7-285.5z"/>
		</g>
		<g>
			<path class="st1" d="M179-273.2c0,0.2,0,0.4,0,0.6c0,0.2,0,0.5,0,0.7c-0.2,7.4-6.4,13.2-13.8,13c-7.4-0.2-13.2-6.4-13-13.8
				c0-0.3,0-0.7,0-1c-10-1.4-18.3-4.2-23.2-7.8v8.3c0,0.4,0.1,0.8,0.3,1.1l0,0l34.1,51.1c0.2,0.3,0.4,0.5,0.7,0.7
				c1.3,0.9,3,0.6,3.9-0.6l37.4-51.2l0,0c0.3-0.4,0.4-0.8,0.4-1.2v-8.2C200.2-277.5,190.6-274.5,179-273.2z"/>
			<path class="st1" d="M135.4-309.1v28.2c3.8,1.4,7.8,2.5,11.8,3.2v-31.4H135.4z"/>
			<path class="st1" d="M148.4-319.8v42.6c3.9,0.7,7.9,1.2,11.8,1.4v-44H148.4z"/>
			<path class="st1" d="M167.3-334.5l-5.7,3l-0.2,55.6c2,0.1,4,0.2,6,0.2s3.9,0,5.8-0.1l0.2-55.6L167.3-334.5z"/>
			<rect x="182" y="-308.3" class="st1" width="6" height="5.9"/>
			<rect x="182.1" y="-300.5" class="st1" width="6" height="5.9"/>
			<rect x="189.6" y="-308.4" class="st1" width="6" height="5.9"/>
			<rect x="189.7" y="-300.6" class="st1" width="6" height="5.9"/>
			<path class="st1" d="M129.1-285.5l-0.2-35.3l38.3-21.3l38.4,20.8l0.2,35.6c-1.5,1.7-3.3,3.2-5.4,4.2l-0.2-36.8l-33-17.8
				l-32.9,18.2l0.2,36.4C132.5-282.5,130.7-283.9,129.1-285.5z"/>
		</g>
		<g>
			<path class="st1" d="M259.4-273.2c0,0.2,0,0.4,0,0.6c0,0.2,0,0.5,0,0.7c-0.2,7.4-6.4,13.2-13.8,13c-7.4-0.2-13.2-6.4-13-13.8
				c0-0.3,0-0.7,0-1c-10-1.4-18.3-4.2-23.2-7.8v8.3c0,0.4,0.1,0.8,0.3,1.1l0,0l34.1,51.1c0.2,0.3,0.4,0.5,0.7,0.7
				c1.3,0.9,3,0.6,3.9-0.6l37.4-51.2l0,0c0.3-0.4,0.4-0.8,0.4-1.2v-8.2C280.6-277.5,271-274.5,259.4-273.2z"/>
			<path class="st1" d="M215.8-309.1v28.2c3.8,1.4,7.8,2.5,11.8,3.2v-31.4H215.8z"/>
			<path class="st1" d="M228.8-319.8v42.6c3.9,0.7,7.9,1.2,11.8,1.4v-44H228.8z"/>
			<path class="st1" d="M247.7-334.5l-5.7,3l-0.2,55.6c2,0.1,4,0.2,6,0.2s3.9,0,5.8-0.1l0.2-55.6L247.7-334.5z"/>
			<rect x="262.4" y="-308.3" class="st1" width="6" height="5.9"/>
			<rect x="262.5" y="-300.5" class="st1" width="6" height="5.9"/>
			<rect x="270" y="-308.4" class="st1" width="6" height="5.9"/>
			<rect x="270.1" y="-300.6" class="st1" width="6" height="5.9"/>
			<path class="st1" d="M209.5-285.5l-0.2-35.3l38.3-21.3l38.4,20.8l0.2,35.6c-1.5,1.7-3.3,3.2-5.4,4.2l-0.2-36.8l-33-17.8
				l-32.9,18.2l0.2,36.4C212.9-282.5,211.1-283.9,209.5-285.5z"/>
		</g>
		<g>
			<path class="st1" d="M339.8-273.2c0,0.2,0,0.4,0,0.6c0,0.2,0,0.5,0,0.7c-0.2,7.4-6.4,13.2-13.8,13c-7.4-0.2-13.2-6.4-13-13.8
				c0-0.3,0-0.7,0-1c-10-1.4-18.3-4.2-23.2-7.8v8.3c0,0.4,0.1,0.8,0.3,1.1l0,0l34.1,51.1c0.2,0.3,0.4,0.5,0.7,0.7
				c1.3,0.9,3,0.6,3.9-0.6l37.4-51.2l0,0c0.3-0.4,0.4-0.8,0.4-1.2v-8.2C361-277.5,351.4-274.5,339.8-273.2z"/>
			<path class="st1" d="M296.2-309.1v28.2c3.8,1.4,7.8,2.5,11.8,3.2v-31.4H296.2z"/>
			<path class="st1" d="M309.2-319.8v42.6c3.9,0.7,7.9,1.2,11.8,1.4v-44H309.2z"/>
			<path class="st1" d="M328.1-334.5l-5.7,3l-0.2,55.6c2,0.1,4,0.2,6,0.2s3.9,0,5.8-0.1l0.2-55.6L328.1-334.5z"/>
			<rect x="342.8" y="-308.3" class="st1" width="6" height="5.9"/>
			<rect x="342.9" y="-300.5" class="st1" width="6" height="5.9"/>
			<rect x="350.4" y="-308.4" class="st1" width="6" height="5.9"/>
			<rect x="350.5" y="-300.6" class="st1" width="6" height="5.9"/>
			<path class="st1" d="M289.9-285.5l-0.2-35.3l38.3-21.3l38.4,20.8l0.2,35.6c-1.5,1.7-3.3,3.2-5.4,4.2l-0.2-36.8l-33-17.8
				l-32.9,18.2l0.2,36.4C293.3-282.5,291.5-283.9,289.9-285.5z"/>
		</g>
		<g>
			<path class="st1" d="M420.2-273.2c0,0.2,0,0.4,0,0.6c0,0.2,0,0.5,0,0.7c-0.2,7.4-6.4,13.2-13.8,13c-7.4-0.2-13.2-6.4-13-13.8
				c0-0.3,0-0.7,0-1c-10-1.4-18.3-4.2-23.2-7.8v8.3c0,0.4,0.1,0.8,0.3,1.1l0,0l34.1,51.1c0.2,0.3,0.4,0.5,0.7,0.7
				c1.3,0.9,3,0.6,3.9-0.6l37.4-51.2l0,0c0.3-0.4,0.4-0.8,0.4-1.2v-8.2C441.4-277.5,431.8-274.5,420.2-273.2z"/>
			<path class="st1" d="M376.6-309.1v28.2c3.8,1.4,7.8,2.5,11.8,3.2v-31.4H376.6z"/>
			<path class="st1" d="M389.6-319.8v42.6c3.9,0.7,7.9,1.2,11.8,1.4v-44H389.6z"/>
			<path class="st1" d="M370.3-285.5l-0.2-35.3l38.3-21.3l38.4,20.8l0.2,35.6c-1.5,1.7-3.3,3.2-5.4,4.2l-0.2-36.8l-33-17.8
				l-32.9,18.2l0.2,36.4C373.7-282.5,371.9-283.9,370.3-285.5z"/>
		</g>
		<g>
			<path class="st1" d="M82.5-204.3c0,0.2,0,0.4,0,0.6s0,0.5,0,0.7c-0.2,7.4-6.4,13.2-13.8,13s-13.2-6.4-13-13.8c0-0.3,0-0.7,0-1
				c-10-1.4-18.3-4.2-23.2-7.8v8.3c0,0.4,0.1,0.8,0.3,1.1l0,0l34.1,51.1c0.2,0.3,0.4,0.5,0.7,0.7c1.3,0.9,3,0.6,3.9-0.6l37.4-51.2
				l0,0c0.3-0.4,0.4-0.8,0.4-1.2v-8.2C103.7-208.6,94.1-205.6,82.5-204.3z"/>
			<path class="st1" d="M70.8-265.6l-5.7,3L64.9-207c2,0.1,4,0.2,6,0.2s3.9,0,5.8-0.1l0.2-55.6L70.8-265.6z"/>
			<rect x="85.5" y="-239.4" class="st1" width="6" height="5.9"/>
			<rect x="85.6" y="-231.6" class="st1" width="6" height="5.9"/>
			<rect x="93.1" y="-239.5" class="st1" width="6" height="5.9"/>
			<rect x="93.2" y="-231.7" class="st1" width="6" height="5.9"/>
			<path class="st1" d="M32.6-216.6l-0.2-35.3l38.3-21.3l38.4,20.8l0.2,35.6c-1.5,1.7-3.3,3.2-5.4,4.2l-0.2-36.8l-33-17.8L37.8-249
				l0.2,36.4C36-213.6,34.2-215,32.6-216.6z"/>
		</g>
		<g>
			<path class="st1" d="M162.9-204.3c0,0.2,0,0.4,0,0.6s0,0.5,0,0.7c-0.2,7.4-6.4,13.2-13.8,13c-7.4-0.2-13.2-6.4-13-13.8
				c0-0.3,0-0.7,0-1c-10-1.4-18.3-4.2-23.2-7.8v8.3c0,0.4,0.1,0.8,0.3,1.1l0,0l34.1,51.1c0.2,0.3,0.4,0.5,0.7,0.7
				c1.3,0.9,3,0.6,3.9-0.6l37.4-51.2l0,0c0.3-0.4,0.4-0.8,0.4-1.2v-8.2C184.1-208.6,174.5-205.6,162.9-204.3z"/>
			<path class="st1" d="M119.3-240.2v28.2c3.8,1.4,7.8,2.5,11.8,3.2v-31.4H119.3z"/>
			<path class="st1" d="M132.3-250.9v42.6c3.9,0.7,7.9,1.2,11.8,1.4v-44H132.3z"/>
			<path class="st1" d="M151.2-265.6l-5.7,3l-0.2,55.6c2,0.1,4,0.2,6,0.2s3.9,0,5.8-0.1l0.2-55.6L151.2-265.6z"/>
			<rect x="165.9" y="-239.4" class="st1" width="6" height="5.9"/>
			<rect x="166" y="-231.6" class="st1" width="6" height="5.9"/>
			<rect x="173.5" y="-239.5" class="st1" width="6" height="5.9"/>
			<rect x="173.6" y="-231.7" class="st1" width="6" height="5.9"/>
			<path class="st1" d="M113-216.6l-0.2-35.3l38.3-21.3l38.4,20.8l0.2,35.6c-1.5,1.7-3.3,3.2-5.4,4.2l-0.2-36.8l-33-17.8L118.2-249
				l0.2,36.4C116.4-213.6,114.6-215,113-216.6z"/>
		</g>
		<g>
			<path class="st1" d="M243.3-204.3c0,0.2,0,0.4,0,0.6s0,0.5,0,0.7c-0.2,7.4-6.4,13.2-13.8,13c-7.4-0.2-13.2-6.4-13-13.8
				c0-0.3,0-0.7,0-1c-10-1.4-18.3-4.2-23.2-7.8v8.3c0,0.4,0.1,0.8,0.3,1.1l0,0l34.1,51.1c0.2,0.3,0.4,0.5,0.7,0.7
				c1.3,0.9,3,0.6,3.9-0.6l37.4-51.2l0,0c0.3-0.4,0.4-0.8,0.4-1.2v-8.2C264.5-208.6,254.9-205.6,243.3-204.3z"/>
			<path class="st1" d="M199.7-240.2v28.2c3.8,1.4,7.8,2.5,11.8,3.2v-31.4H199.7z"/>
			<path class="st1" d="M212.7-250.9v42.6c3.9,0.7,7.9,1.2,11.8,1.4v-44H212.7z"/>
			<path class="st1" d="M231.6-265.6l-5.7,3l-0.2,55.6c2,0.1,4,0.2,6,0.2s3.9,0,5.8-0.1l0.2-55.6L231.6-265.6z"/>
			<rect x="246.3" y="-239.4" class="st1" width="6" height="5.9"/>
			<rect x="246.4" y="-231.6" class="st1" width="6" height="5.9"/>
			<rect x="253.9" y="-239.5" class="st1" width="6" height="5.9"/>
			<rect x="254" y="-231.7" class="st1" width="6" height="5.9"/>
			<path class="st1" d="M193.4-216.6l-0.2-35.3l38.3-21.3l38.4,20.8l0.2,35.6c-1.5,1.7-3.3,3.2-5.4,4.2l-0.2-36.8l-33-17.8
				L198.6-249l0.2,36.4C196.8-213.6,195-215,193.4-216.6z"/>
		</g>
		<g>
			<path class="st1" d="M323.7-204.3c0,0.2,0,0.4,0,0.6s0,0.5,0,0.7c-0.2,7.4-6.4,13.2-13.8,13c-7.4-0.2-13.2-6.4-13-13.8
				c0-0.3,0-0.7,0-1c-10-1.4-18.3-4.2-23.2-7.8v8.3c0,0.4,0.1,0.8,0.3,1.1l0,0l34.1,51.1c0.2,0.3,0.4,0.5,0.7,0.7
				c1.3,0.9,3,0.6,3.9-0.6l37.4-51.2l0,0c0.3-0.4,0.4-0.8,0.4-1.2v-8.2C344.9-208.6,335.3-205.6,323.7-204.3z"/>
			<path class="st1" d="M280.1-240.2v28.2c3.8,1.4,7.8,2.5,11.8,3.2v-31.4H280.1z"/>
			<path class="st1" d="M293.1-250.9v42.6c3.9,0.7,7.9,1.2,11.8,1.4v-44H293.1z"/>
			<path class="st1" d="M312-265.6l-5.7,3l-0.2,55.6c2,0.1,4,0.2,6,0.2s3.9,0,5.8-0.1l0.2-55.6L312-265.6z"/>
			<rect x="326.7" y="-239.4" class="st1" width="6" height="5.9"/>
			<rect x="326.8" y="-231.6" class="st1" width="6" height="5.9"/>
			<rect x="334.3" y="-239.5" class="st1" width="6" height="5.9"/>
			<rect x="334.4" y="-231.7" class="st1" width="6" height="5.9"/>
			<path class="st1" d="M273.8-216.6l-0.2-35.3l38.3-21.3l38.4,20.8l0.2,35.6c-1.5,1.7-3.3,3.2-5.4,4.2l-0.2-36.8l-33-17.8L279-249
				l0.2,36.4C277.2-213.6,275.4-215,273.8-216.6z"/>
		</g>
		<g>
			<path class="st1" d="M404.1-204.3c0,0.2,0,0.4,0,0.6s0,0.5,0,0.7c-0.2,7.4-6.4,13.2-13.8,13c-7.4-0.2-13.2-6.4-13-13.8
				c0-0.3,0-0.7,0-1c-10-1.4-18.3-4.2-23.2-7.8v8.3c0,0.4,0.1,0.8,0.3,1.1l0,0l34.1,51.1c0.2,0.3,0.4,0.5,0.7,0.7
				c1.3,0.9,3,0.6,3.9-0.6l37.4-51.2l0,0c0.3-0.4,0.4-0.8,0.4-1.2v-8.2C425.3-208.6,415.7-205.6,404.1-204.3z"/>
			<path class="st1" d="M360.5-240.2v28.2c3.8,1.4,7.8,2.5,11.8,3.2v-31.4H360.5z"/>
			<path class="st1" d="M373.5-250.9v42.6c3.9,0.7,7.9,1.2,11.8,1.4v-44H373.5z"/>
			<path class="st1" d="M392.4-265.6l-5.7,3l-0.2,55.6c2,0.1,4,0.2,6,0.2s3.9,0,5.8-0.1l0.2-55.6L392.4-265.6z"/>
			<path class="st1" d="M354.2-216.6l-0.2-35.3l38.3-21.3l38.4,20.8l0.2,35.6c-1.5,1.7-3.3,3.2-5.4,4.2l-0.2-36.8l-33-17.8
				L359.4-249l0.2,36.4C357.6-213.6,355.8-215,354.2-216.6z"/>
		</g>
		<g>
			<path class="st1" d="M66.4-135.5c0,0.2,0,0.4,0,0.6s0,0.5,0,0.7c-0.2,7.4-6.4,13.2-13.8,13c-7.4-0.2-13.2-6.4-13-13.8
				c0-0.3,0-0.7,0-1c-10-1.4-18.3-4.2-23.2-7.8v8.3c0,0.4,0.1,0.8,0.3,1.1l0,0l34.1,51.1c0.2,0.3,0.4,0.5,0.7,0.7
				c1.3,0.9,3,0.6,3.9-0.6l37.4-51.2l0,0c0.3-0.4,0.4-0.8,0.4-1.2v-8.2C87.6-139.8,78-136.8,66.4-135.5z"/>
			<rect x="69.4" y="-170.6" class="st1" width="6" height="5.9"/>
			<rect x="69.5" y="-162.8" class="st1" width="6" height="5.9"/>
			<rect x="77" y="-170.7" class="st1" width="6" height="5.9"/>
			<rect x="77.1" y="-162.9" class="st1" width="6" height="5.9"/>
			<path class="st1" d="M16.5-147.8l-0.2-35.3l38.3-21.3L93-183.6l0.2,35.6c-1.5,1.7-3.3,3.2-5.4,4.2l-0.2-36.8l-33-17.8l-32.9,18.2
				l0.2,36.4C19.9-144.8,18.1-146.2,16.5-147.8z"/>
		</g>
		<g>
			<path class="st1" d="M146.8-135.5c0,0.2,0,0.4,0,0.6s0,0.5,0,0.7c-0.2,7.4-6.4,13.2-13.8,13c-7.4-0.2-13.2-6.4-13-13.8
				c0-0.3,0-0.7,0-1c-10-1.4-18.3-4.2-23.2-7.8v8.3c0,0.4,0.1,0.8,0.3,1.1l0,0l34.1,51.1c0.2,0.3,0.4,0.5,0.7,0.7
				c1.3,0.9,3,0.6,3.9-0.6l37.4-51.2l0,0c0.3-0.4,0.4-0.8,0.4-1.2v-8.2C168-139.8,158.4-136.8,146.8-135.5z"/>
			<path class="st1" d="M103.2-171.4v28.2c3.8,1.4,7.8,2.5,11.8,3.2v-31.4H103.2z"/>
			<path class="st1" d="M116.2-182.1v42.6c3.9,0.7,7.9,1.2,11.8,1.4v-44H116.2z"/>
			<path class="st1" d="M135.1-196.8l-5.7,3l-0.2,55.6c2,0.1,4,0.2,6,0.2s3.9,0,5.8-0.1l0.2-55.6L135.1-196.8z"/>
			<rect x="149.8" y="-170.6" class="st1" width="6" height="5.9"/>
			<rect x="149.9" y="-162.8" class="st1" width="6" height="5.9"/>
			<rect x="157.4" y="-170.7" class="st1" width="6" height="5.9"/>
			<rect x="157.5" y="-162.9" class="st1" width="6" height="5.9"/>
			<path class="st1" d="M96.9-147.8l-0.2-35.3l38.3-21.3l38.4,20.8l0.2,35.6c-1.5,1.7-3.3,3.2-5.4,4.2l-0.2-36.8l-33-17.8
				l-32.9,18.2l0.2,36.4C100.3-144.8,98.5-146.2,96.9-147.8z"/>
		</g>
		<g>
			<path class="st1" d="M227.2-135.5c0,0.2,0,0.4,0,0.6s0,0.5,0,0.7c-0.2,7.4-6.4,13.2-13.8,13c-7.4-0.2-13.2-6.4-13-13.8
				c0-0.3,0-0.7,0-1c-10-1.4-18.3-4.2-23.2-7.8v8.3c0,0.4,0.1,0.8,0.3,1.1l0,0l34.1,51.1c0.2,0.3,0.4,0.5,0.7,0.7
				c1.3,0.9,3,0.6,3.9-0.6l37.4-51.2l0,0c0.3-0.4,0.4-0.8,0.4-1.2v-8.2C248.4-139.8,238.8-136.8,227.2-135.5z"/>
			<path class="st1" d="M183.6-171.4v28.2c3.8,1.4,7.8,2.5,11.8,3.2v-31.4H183.6z"/>
			<path class="st1" d="M196.6-182.1v42.6c3.9,0.7,7.9,1.2,11.8,1.4v-44H196.6z"/>
			<path class="st1" d="M215.5-196.8l-5.7,3l-0.2,55.6c2,0.1,4,0.2,6,0.2s3.9,0,5.8-0.1l0.2-55.6L215.5-196.8z"/>
			<rect x="230.2" y="-170.6" class="st1" width="6" height="5.9"/>
			<rect x="230.3" y="-162.8" class="st1" width="6" height="5.9"/>
			<rect x="237.8" y="-170.7" class="st1" width="6" height="5.9"/>
			<rect x="237.9" y="-162.9" class="st1" width="6" height="5.9"/>
			<path class="st1" d="M177.3-147.8l-0.2-35.3l38.3-21.3l38.4,20.8L254-148c-1.5,1.7-3.3,3.2-5.4,4.2l-0.2-36.8l-33-17.8
				l-32.9,18.2l0.2,36.4C180.7-144.8,178.9-146.2,177.3-147.8z"/>
		</g>
		<g>
			<path class="st1" d="M307.6-135.5c0,0.2,0,0.4,0,0.6s0,0.5,0,0.7c-0.2,7.4-6.4,13.2-13.8,13c-7.4-0.2-13.2-6.4-13-13.8
				c0-0.3,0-0.7,0-1c-10-1.4-18.3-4.2-23.2-7.8v8.3c0,0.4,0.1,0.8,0.3,1.1l0,0L292-83.3c0.2,0.3,0.4,0.5,0.7,0.7
				c1.3,0.9,3,0.6,3.9-0.6l37.4-51.2l0,0c0.3-0.4,0.4-0.8,0.4-1.2v-8.2C328.8-139.8,319.2-136.8,307.6-135.5z"/>
			<path class="st1" d="M264-171.4v28.2c3.8,1.4,7.8,2.5,11.8,3.2v-31.4H264z"/>
			<path class="st1" d="M277-182.1v42.6c3.9,0.7,7.9,1.2,11.8,1.4v-44H277z"/>
			<path class="st1" d="M295.9-196.8l-5.7,3l-0.2,55.6c2,0.1,4,0.2,6,0.2s3.9,0,5.8-0.1l0.2-55.6L295.9-196.8z"/>
			<rect x="310.6" y="-170.6" class="st1" width="6" height="5.9"/>
			<rect x="310.7" y="-162.8" class="st1" width="6" height="5.9"/>
			<rect x="318.2" y="-170.7" class="st1" width="6" height="5.9"/>
			<rect x="318.3" y="-162.9" class="st1" width="6" height="5.9"/>
			<path class="st1" d="M257.7-147.8l-0.2-35.3l38.3-21.3l38.4,20.8l0.2,35.6c-1.5,1.7-3.3,3.2-5.4,4.2l-0.2-36.8l-33-17.8
				l-32.9,18.2l0.2,36.4C261.1-144.8,259.3-146.2,257.7-147.8z"/>
		</g>
		<g>
			<path class="st1" d="M388-135.5c0,0.2,0,0.4,0,0.6s0,0.5,0,0.7c-0.2,7.4-6.4,13.2-13.8,13c-7.4-0.2-13.2-6.4-13-13.8
				c0-0.3,0-0.7,0-1c-10-1.4-18.3-4.2-23.2-7.8v8.3c0,0.4,0.1,0.8,0.3,1.1l0,0l34.1,51.1c0.2,0.3,0.4,0.5,0.7,0.7
				c1.3,0.9,3,0.6,3.9-0.6l37.4-51.2l0,0c0.3-0.4,0.4-0.8,0.4-1.2v-8.2C409.2-139.8,399.6-136.8,388-135.5z"/>
			<path class="st1" d="M344.4-171.4v28.2c3.8,1.4,7.8,2.5,11.8,3.2v-31.4H344.4z"/>
			<path class="st1" d="M357.4-182.1v42.6c3.9,0.7,7.9,1.2,11.8,1.4v-44H357.4z"/>
			<path class="st1" d="M376.3-196.8l-5.7,3l-0.2,55.6c2,0.1,4,0.2,6,0.2s3.9,0,5.8-0.1l0.2-55.6L376.3-196.8z"/>
			<rect x="391" y="-170.6" class="st1" width="6" height="5.9"/>
			<rect x="391.1" y="-162.8" class="st1" width="6" height="5.9"/>
			<path class="st1" d="M338.1-147.8l-0.2-35.3l38.3-21.3l38.4,20.8l0.2,35.6c-1.5,1.7-3.3,3.2-5.4,4.2l-0.2-36.8l-33-17.8
				l-32.9,18.2l0.2,36.4C341.5-144.8,339.7-146.2,338.1-147.8z"/>
		</g>
		<g>
			<path class="st1" d="M50.4-66.6c0,0.2,0,0.4,0,0.6s0,0.5,0,0.7c-0.2,7.4-6.4,13.2-13.8,13c-7.4-0.2-13.2-6.4-13-13.8
				c0-0.3,0-0.7,0-1c-10-1.4-18.3-4.2-23.2-7.8v8.3c0,0.4,0.1,0.8,0.3,1.1l0,0l34.1,51.1c0.2,0.3,0.4,0.5,0.7,0.7
				c1.3,0.9,3,0.6,3.9-0.6l37.4-51.2l0,0c0.3-0.4,0.4-0.8,0.4-1.2v-8.2C71.6-70.9,62-67.9,50.4-66.6z"/>
			<path class="st1" d="M0.5-78.9l-0.2-35.3l38.3-21.3L77-114.7l0.2,35.6c-1.5,1.7-3.3,3.2-5.4,4.2l-0.2-36.8l-33-17.8L5.7-111.3
				l0.2,36.4C3.9-75.9,2.1-77.3,0.5-78.9z"/>
		</g>
		<g>
			<path class="st1" d="M130.8-66.6c0,0.2,0,0.4,0,0.6s0,0.5,0,0.7c-0.2,7.4-6.4,13.2-13.8,13c-7.4-0.2-13.2-6.4-13-13.8
				c0-0.3,0-0.7,0-1c-10-1.4-18.3-4.2-23.2-7.8v8.3c0,0.4,0.1,0.8,0.3,1.1l0,0l34.1,51.1c0.2,0.3,0.4,0.5,0.7,0.7
				c1.3,0.9,3,0.6,3.9-0.6l37.4-51.2l0,0c0.3-0.4,0.4-0.8,0.4-1.2v-8.2C152-70.9,142.4-67.9,130.8-66.6z"/>
			<path class="st1" d="M87.2-102.5v28.2C91-72.9,95-71.8,99-71.1v-31.4H87.2z"/>
			<path class="st1" d="M100.2-113.2v42.6c3.9,0.7,7.9,1.2,11.8,1.4v-44H100.2z"/>
			<path class="st1" d="M119.1-127.9l-5.7,3l-0.2,55.6c2,0.1,4,0.2,6,0.2s3.9,0,5.8-0.1l0.2-55.6L119.1-127.9z"/>
			<rect x="133.8" y="-101.7" class="st1" width="6" height="5.9"/>
			<rect x="133.9" y="-93.9" class="st1" width="6" height="5.9"/>
			<rect x="141.4" y="-101.8" class="st1" width="6" height="5.9"/>
			<rect x="141.5" y="-94" class="st1" width="6" height="5.9"/>
			<path class="st1" d="M80.9-78.9l-0.2-35.3l38.3-21.3l38.4,20.8l0.2,35.6c-1.5,1.7-3.3,3.2-5.4,4.2l-0.2-36.8l-33-17.8l-32.9,18.2
				l0.2,36.4C84.3-75.9,82.5-77.3,80.9-78.9z"/>
		</g>
		<g>
			<path class="st1" d="M211.2-66.6c0,0.2,0,0.4,0,0.6s0,0.5,0,0.7c-0.2,7.4-6.4,13.2-13.8,13c-7.4-0.2-13.2-6.4-13-13.8
				c0-0.3,0-0.7,0-1c-10-1.4-18.3-4.2-23.2-7.8v8.3c0,0.4,0.1,0.8,0.3,1.1l0,0l34.1,51.1c0.2,0.3,0.4,0.5,0.7,0.7
				c1.3,0.9,3,0.6,3.9-0.6l37.4-51.2l0,0c0.3-0.4,0.4-0.8,0.4-1.2v-8.2C232.4-70.9,222.8-67.9,211.2-66.6z"/>
			<path class="st1" d="M167.6-102.5v28.2c3.8,1.4,7.8,2.5,11.8,3.2v-31.4H167.6z"/>
			<path class="st1" d="M180.6-113.2v42.6c3.9,0.7,7.9,1.2,11.8,1.4v-44H180.6z"/>
			<path class="st1" d="M199.5-127.9l-5.7,3l-0.2,55.6c2,0.1,4,0.2,6,0.2s3.9,0,5.8-0.1l0.2-55.6L199.5-127.9z"/>
			<rect x="214.2" y="-101.7" class="st1" width="6" height="5.9"/>
			<rect x="214.3" y="-93.9" class="st1" width="6" height="5.9"/>
			<rect x="221.8" y="-101.8" class="st1" width="6" height="5.9"/>
			<rect x="221.9" y="-94" class="st1" width="6" height="5.9"/>
			<path class="st1" d="M161.3-78.9l-0.2-35.3l38.3-21.3l38.4,20.8l0.2,35.6c-1.5,1.7-3.3,3.2-5.4,4.2l-0.2-36.8l-33-17.8
				l-32.9,18.2l0.2,36.4C164.7-75.9,162.9-77.3,161.3-78.9z"/>
		</g>
		<g>
			<path class="st1" d="M291.6-66.6c0,0.2,0,0.4,0,0.6s0,0.5,0,0.7c-0.2,7.4-6.4,13.2-13.8,13c-7.4-0.2-13.2-6.4-13-13.8
				c0-0.3,0-0.7,0-1c-10-1.4-18.3-4.2-23.2-7.8v8.3c0,0.4,0.1,0.8,0.3,1.1l0,0L276-14.4c0.2,0.3,0.4,0.5,0.7,0.7
				c1.3,0.9,3,0.6,3.9-0.6L318-65.5l0,0c0.3-0.4,0.4-0.8,0.4-1.2v-8.2C312.8-70.9,303.2-67.9,291.6-66.6z"/>
			<path class="st1" d="M248-102.5v28.2c3.8,1.4,7.8,2.5,11.8,3.2v-31.4H248z"/>
			<path class="st1" d="M261-113.2v42.6c3.9,0.7,7.9,1.2,11.8,1.4v-44H261z"/>
			<path class="st1" d="M279.9-127.9l-5.7,3L274-69.3c2,0.1,4,0.2,6,0.2s3.9,0,5.8-0.1l0.2-55.6L279.9-127.9z"/>
			<rect x="294.6" y="-101.7" class="st1" width="6" height="5.9"/>
			<rect x="294.7" y="-93.9" class="st1" width="6" height="5.9"/>
			<rect x="302.2" y="-101.8" class="st1" width="6" height="5.9"/>
			<rect x="302.3" y="-94" class="st1" width="6" height="5.9"/>
			<path class="st1" d="M241.7-78.9l-0.2-35.3l38.3-21.3l38.4,20.8l0.2,35.6c-1.5,1.7-3.3,3.2-5.4,4.2l-0.2-36.8l-33-17.8
				l-32.9,18.2l0.2,36.4C245.1-75.9,243.3-77.3,241.7-78.9z"/>
		</g>
		<g>
			<path class="st1" d="M372-66.6c0,0.2,0,0.4,0,0.6s0,0.5,0,0.7c-0.2,7.4-6.4,13.2-13.8,13c-7.4-0.2-13.2-6.4-13-13.8
				c0-0.3,0-0.7,0-1c-10-1.4-18.3-4.2-23.2-7.8v8.3c0,0.4,0.1,0.8,0.3,1.1l0,0l34.1,51.1c0.2,0.3,0.4,0.5,0.7,0.7
				c1.3,0.9,3,0.6,3.9-0.6l37.4-51.2l0,0c0.3-0.4,0.4-0.8,0.4-1.2v-8.2C393.2-70.9,383.6-67.9,372-66.6z"/>
			<path class="st1" d="M328.4-102.5v28.2c3.8,1.4,7.8,2.5,11.8,3.2v-31.4H328.4z"/>
			<path class="st1" d="M341.4-113.2v42.6c3.9,0.7,7.9,1.2,11.8,1.4v-44H341.4z"/>
			<path class="st1" d="M360.3-127.9l-5.7,3l-0.2,55.6c2,0.1,4,0.2,6,0.2s3.9,0,5.8-0.1l0.2-55.6L360.3-127.9z"/>
			<rect x="375" y="-101.7" class="st1" width="6" height="5.9"/>
			<rect x="375.1" y="-93.9" class="st1" width="6" height="5.9"/>
			<rect x="382.6" y="-101.8" class="st1" width="6" height="5.9"/>
			<rect x="382.7" y="-94" class="st1" width="6" height="5.9"/>
			<path class="st1" d="M322.1-78.9l-0.2-35.3l38.3-21.3l38.4,20.8l0.2,35.6c-1.5,1.7-3.3,3.2-5.4,4.2l-0.2-36.8l-33-17.8
				l-32.9,18.2l0.2,36.4C325.5-75.9,323.7-77.3,322.1-78.9z"/>
		</g>
		<g>
			<path class="st1" d="M84.1-44.3v42.6C88-1,92-0.5,95.9-0.3v-44H84.1z"/>
			<path class="st1" d="M103-59l-5.7,3L97.1-0.4c2,0.1,4,0.2,6,0.2s3.9,0,5.8-0.1l0.2-55.6L103-59z"/>
			<path class="st1" d="M64.8-10l-0.2-35.3l38.3-21.3l38.4,20.8l0.2,35.6C140-8.5,138.2-7,136.1-6l-0.2-36.8l-33-17.8L70-42.4
				L70.2-6C68.2-7,66.4-8.4,64.8-10z"/>
		</g>
		<g>
			<path class="st1" d="M164.5-44.3v42.6c3.9,0.7,7.9,1.2,11.8,1.4v-44H164.5z"/>
			<path class="st1" d="M183.4-59l-5.7,3l-0.2,55.6c2,0.1,4,0.2,6,0.2s3.9,0,5.8-0.1l0.2-55.6L183.4-59z"/>
			<path class="st1" d="M145.2-10L145-45.3l38.3-21.3l38.4,20.8l0.2,35.6c-1.5,1.7-3.3,3.2-5.4,4.2l-0.2-36.8l-33-17.8l-32.9,18.2
				L150.6-6C148.6-7,146.8-8.4,145.2-10z"/>
		</g>
		<g>
			<path class="st1" d="M244.9-44.3v42.6c3.9,0.7,7.9,1.2,11.8,1.4v-44H244.9z"/>
			<path class="st1" d="M263.8-59l-5.7,3l-0.2,55.6c2,0.1,4,0.2,6,0.2s3.9,0,5.8-0.1l0.2-55.6L263.8-59z"/>
			<path class="st1" d="M225.6-10l-0.2-35.3l38.3-21.3l38.4,20.8l0.2,35.6C300.8-8.5,299-7,296.9-6l-0.2-36.8l-33-17.8l-32.9,18.2
				L231-6C229-7,227.2-8.4,225.6-10z"/>
		</g>
		<g>
			<path class="st1" d="M325.3-44.3v42.6c3.9,0.7,7.9,1.2,11.8,1.4v-44H325.3z"/>
			<path class="st1" d="M344.2-59l-5.7,3l-0.2,55.6c2,0.1,4,0.2,6,0.2s3.9,0,5.8-0.1l0.2-55.6L344.2-59z"/>
			<path class="st1" d="M306-10l-0.2-35.3l38.3-21.3l38.4,20.8l0.2,35.6c-1.5,1.7-3.3,3.2-5.4,4.2l-0.2-36.8l-33-17.8l-32.9,18.2
				L311.4-6C309.4-7,307.6-8.4,306-10z"/>
		</g>
		<g>
			<path class="st1" d="M386.4-10l-0.2-35.3l38.3-21.3l38.4,20.8l0.2,35.6c-1.5,1.7-3.3,3.2-5.4,4.2l-0.2-36.8l-33-17.8l-32.9,18.2
				L391.8-6C389.8-7,388-8.4,386.4-10z"/>
		</g>
	</g>
</pattern>
<g id="Capa_1">
	<pattern  id="SVGID_1_" xlink:href="#Motivo_nuevo" patternTransform="matrix(0.3 0 0 0.3 -5284.064 -5143.7334)">
	</pattern>
	<rect x="0.5" y="-0.5" class="st2" width="1024" height="768"/>
</g>
<g id="Capa_2" class="st3">
	<path class="st4" d="M485.8,390.9l-0.2-36.4l32.9-18.2l33,17.8l0.2,36.8c2.1-1,3.9-2.5,5.4-4.2l-0.2-35.6l-38.4-20.8l-38.3,21.3
		l0.2,35.3C482,388.5,483.8,389.9,485.8,390.9z"/>
	<path class="st4" d="M557.1,390.9v8.2c0,0.4-0.1,0.8-0.4,1.2l0,0l-37.4,51.2c-0.9,1.2-2.6,1.5-3.9,0.6c-0.3-0.2-0.5-0.4-0.7-0.7
		l-34.1-51.1l0,0c-0.2-0.3-0.3-0.7-0.3-1.1v-8.3c4.9,3.6,13.2,6.4,23.2,7.8c0,0.3,0,0.7,0,1c-0.2,7.4,5.6,13.6,13,13.8
		c7.4,0.2,13.6-5.6,13.8-13c0-0.2,0-0.5,0-0.7c0-0.2,0-0.4,0-0.6C541.9,397.9,551.5,394.9,557.1,390.9z"/>
	<path class="st4" d="M498.5,363.3v31.4c-4-0.7-8-1.8-11.8-3.2v-28.2H498.5z"/>
	<path class="st4" d="M511.5,352.6v44c-3.9-0.2-7.9-0.7-11.8-1.4v-42.6H511.5z"/>
	<path class="st4" d="M524.7,341l-0.2,55.6c-1.9,0.1-3.8,0.1-5.8,0.1s-4-0.1-6-0.2l0.2-55.6l5.7-3L524.7,341z"/>
	<rect x="533.3" y="364.1" class="st4" width="6" height="5.9"/>
	<rect x="533.4" y="371.9" class="st4" width="6" height="5.9"/>
	<rect x="540.9" y="364" class="st4" width="6" height="5.9"/>
	<rect x="541" y="371.8" class="st4" width="6" height="5.9"/>
</g>
</svg>
