<?xml version="1.0" encoding="utf-8"?>
<!-- Generator: Adobe Illustrator 24.1.1, SVG Export Plug-In . SVG Version: 6.00 Build 0)  -->
<svg version="1.1" id="Capa_1" xmlns="http://www.w3.org/2000/svg" xmlns:xlink="http://www.w3.org/1999/xlink" x="0px" y="0px"
	 viewBox="0 0 80 80" style="enable-background:new 0 0 80 80;" xml:space="preserve">
<style type="text/css">
	.st0{fill:#C3EA1F;}
</style>
<path class="st0" d="M66.53,39.5v5.25c0,0.26-0.06,0.51-0.26,0.77l0,0L42.34,78.28c-0.58,0.77-1.66,0.96-2.5,0.38
	c-0.19-0.13-0.32-0.26-0.45-0.45l-21.82-32.7l0,0c-0.13-0.19-0.19-0.45-0.19-0.7V39.5c3.14,2.3,8.45,4.1,14.85,4.99
	c0,0.19,0,0.45,0,0.64c-0.13,4.74,3.58,8.7,8.32,8.83c4.74,0.13,8.7-3.58,8.83-8.32c0-0.13,0-0.32,0-0.45c0-0.13,0-0.26,0-0.38
	C56.8,43.98,62.95,42.06,66.53,39.5z"/>
<path class="st0" d="M29.03,21.83v20.1c-2.56-0.45-5.12-1.15-7.55-2.05V21.83H29.03z"/>
<path class="st0" d="M37.35,14.99v28.16c-2.5-0.13-5.06-0.45-7.55-0.9V14.99H37.35z"/>
<path class="st0" d="M45.79,7.56l-0.13,35.58c-1.22,0.06-2.43,0.06-3.71,0.06c-1.28,0-2.56-0.06-3.84-0.13L38.24,7.5l3.65-1.92
	L45.79,7.56z"/>
<rect x="51.3" y="22.35" class="st0" width="3.84" height="3.78"/>
<rect x="51.36" y="27.34" class="st0" width="3.84" height="3.78"/>
<rect x="56.16" y="22.28" class="st0" width="3.84" height="3.78"/>
<rect x="56.23" y="27.27" class="st0" width="3.84" height="3.78"/>
<path class="st0" d="M20.9,39.5l-0.13-23.3L41.83,4.55l21.12,11.39l0.13,23.55c1.34-0.64,2.5-1.6,3.46-2.69L66.4,14.03L41.83,0.71
	L17.31,14.35l0.13,22.59C18.47,37.96,19.62,38.86,20.9,39.5z"/>
</svg>
